<?xml version="1.0" ?><svg viewBox="0 0 512 512" xmlns="http://www.w3.org/2000/svg"><title/><g data-name="1" id="_1" fill="#FFFFFF"><path d="M192.27,242.55a58.37,58.37,0,1,1,58.37-58.37A58.43,58.43,0,0,1,192.27,242.55Zm0-86.74a28.37,28.37,0,1,0,28.37,28.37A28.4,28.4,0,0,0,192.27,155.81Z"/><path d="M321.91,372.19a58.37,58.37,0,1,1,58.37-58.37A58.45,58.45,0,0,1,321.91,372.19Zm0-86.74a28.37,28.37,0,1,0,28.37,28.37A28.4,28.4,0,0,0,321.91,285.45Z"/><path d="M198.17,351.23a15,15,0,0,1-12.42-23.39L303.56,153.37a15,15,0,0,1,24.87,16.79L210.61,344.63A15,15,0,0,1,198.17,351.23Z"/><path d="M257.09,450c-110.83,0-201-90.17-201-201s90.17-201,201-201,201,90.17,201,201S367.92,450,257.09,450Zm0-372c-94.29,0-171,76.71-171,171s76.71,171,171,171,171-76.71,171-171S351.38,78,257.09,78Z"/></g></svg>